<svg width="474" height="286" viewBox="0 0 474 286" fill="none" xmlns="http://www.w3.org/2000/svg">
<path d="M70.9587 281H0.828789V5.25741H188.479V61.82H70.9587V124.497H177.778V178.194H70.9587V281ZM473.203 164.435C473.203 202.144 462.12 231.826 439.953 253.483C417.787 275.013 387.149 285.777 348.039 285.777C305.362 285.777 271.985 273.229 247.908 248.133C223.831 222.909 211.792 187.748 211.792 142.651C211.792 98.0634 223.767 63.2213 247.717 38.1249C271.667 13.0284 304.534 0.48016 346.319 0.48016C379.569 0.48016 407.659 9.39768 430.59 27.2327C453.521 45.0678 466.769 68.0623 470.336 96.2162H400.971C397.531 83.9864 390.97 74.3682 381.289 67.3616C371.607 60.355 360.014 56.8517 346.51 56.8517C326.637 56.8517 311.095 64.3042 299.884 79.2092C288.801 94.1142 283.26 114.943 283.26 141.696C283.26 168.83 289.247 190.232 301.222 205.902C313.197 221.571 329.312 229.406 349.568 229.406C365.364 229.406 378.359 225.138 388.55 216.603C398.741 208.067 404.347 196.857 405.366 182.971L405.557 178.767H355.109V130.612H473.203V164.435Z" fill="#EDEDED"/>
</svg>
